# xmcd CD database file
#
# Track frame offsets:
#	150
#	12670
#	23815
#	36392
#	48745
#	63892
#	74802
#	87357
#	102182
#	110342
#	119415
#	132297
#	142297
#	157212
#	167037
#	178912
#	193075
#	203787
#	214662
#	226125
#	239275
#	249855
#	262862
#	278310
#	297525
#
# Disc length: 4115 seconds
#
# Revision: 3
# Processed by: cddbd v1.5.1PL0 Copyright (c) Steve Scherf et al.
# Submitted via: CDex 1.51
#
DISCID=7d101119
DTITLE=Various Artist - Classic Country Recordings Volume 5 Disk 2
DYEAR=1900
DGENRE=Country
TTITLE0=George Jones - White Lightning
TTITLE1=Johnny Cash - Oh Lonesome Me
TTITLE2=Mel Tillis - Midnight, Me, And The Blues
TTITLE3=Wilma Lee and Stoney Cooper - Big Midnight Special
TTITLE4=Jessie Colter - I'm Not Lisa
TTITLE5=Roger Miller - King Of The Road
TTITLE6=Hank Williams - I'm So Lonesome I Could Cry
TTITLE7=Ray Stevens - The Streak
TTITLE8=Johnny Cash - Guess Things Happen That Way
TTITLE9=Everly Brothers - Wake Up Little Susie
TTITLE10=Statler Brothers - Do You Remember These
TTITLE11=Statler Brothers - Do You Know You Are My Sunshine
TTITLE12=Don Gibson - Woman
TTITLE13=Mel Tillis - I Ain't Never
TTITLE14=Ernis Ashworth - Talk Back Trembling Lips
TTITLE15=Glen Campbell - Country Boy
TTITLE16=Everly Brothers - Bye Bye Love
TTITLE17=Reba McEntire - Can't Even Get The Blues
TTITLE18=Marvin Rainwater - Gonna Find Me A Bluebird
TTITLE19=Hank Williams - Hey Good Lookin'
TTITLE20=Hank Locklin - Please Help me I'm Fallin'
TTITLE21=Tom T. Hall - Faser Horses
TTITLE22=Billy Crash Craddock - If I Could Write A Song As Beautiful As You
TTITLE23=Mac Davis - Texas In My Rearview Mirror
TTITLE24=Willie Nelson - Night Life
EXTD=
EXTT0=
EXTT1=
EXTT2=
EXTT3=
EXTT4=
EXTT5=
EXTT6=
EXTT7=
EXTT8=
EXTT9=
EXTT10=
EXTT11=
EXTT12=
EXTT13=
EXTT14=
EXTT15=
EXTT16=
EXTT17=
EXTT18=
EXTT19=
EXTT20=
EXTT21=
EXTT22=
EXTT23=
EXTT24=
PLAYORDER=
